<svg xmlns="http://www.w3.org/2000/svg" width="323" height="319" viewBox="0 0 323 319"><g><g clip-path="url(#clip-DF3D0FC9-6F29-4A75-9BCE-F144AE643657)" transform="rotate(129 204 1003)"><path d="M283.582 68.484c-.568-1.42-1.113-2.764-2.237-3.782-.666-.601-1.374-.765-2.147-.118-1.193.999-2.322.603-2.972-.549-1.516-2.686-4.04-4.343-6.178-6.389-1.452-1.39-2.636-3.042-4.318-4.212-2.545-1.77-4.162-4.624-6.723-6.274-1.886-1.215-3.294-2.693-4.834-4.241-1.985-1.997-4.662-3.318-7.092-4.85-.82-.518-1.628-1.012-2.243-1.767-.45-.552-1-1.009-1.644-1.244-3.187-1.162-5.904-3.184-8.628-5.07-2.411-1.667-5.013-2.966-7.469-4.527-1.771-1.127-3.853-1.775-5.818-2.583-3.43-1.411-6.873-2.79-10.318-4.166-1.634-.652-3.434-.755-5.062-1.28-3.11-1.002-6.24-1.93-9.37-2.86-1.447-.43-2.785-1.12-4.446-.948-1.387.144-2.574-1.086-4.085-1.182-2.595-.165-5.326-.148-7.686-1.235-2.259-1.04-4.558-.451-6.814-.864-2.26-.414-4.65-.105-6.984-.145a523.62 523.62 0 0 1-8.274-.208c-.976-.032-1.76.026-2.074 1.221-.22.838-.907 1.113-1.56.357-2.27-2.63-5.122-2.115-7.927-1.41a6.396 6.396 0 0 1-2.658.128c-.369-.06-.766-.19-.723-.688.032-.373.344-.51.661-.599a1.64 1.64 0 0 1 .473-.076c2.849.082 5.451-1.167 8.221-1.525.668-.087 1.265.087 1.893.165.266.034.575.031.681-.268.142-.4-.178-.627-.476-.692-.516-.112-1.054-.139-1.585-.167-2.546-.133-5.114.401-7.649-.262a1.507 1.507 0 0 0-1.08.176c-2.173 1.418-4.694 1.537-7.128 1.951-1.585.27-2.956-.303-3.957-1.54-.369-.456-.591-.88-1.249-.614-.45.182-.51.317-.184.798 1.425 2.1 3.658 2.271 5.84 2.607.258.04.513.1.768.16.039.01.065.075.183.221-1.474 1.503-3.304 2.139-5.353 2.288-2.81.205-5.623.34-8.355 1.181-1.187.366-2.338.722-3.293 1.547a1.766 1.766 0 0 1-1.168.453c-4 .035-7.556 1.561-11.044 3.31-.334.167-.68.461-1.014.454-3.75-.083-6.677 2.69-10.32 2.963-.306.022-.667.122-.89.316-1.874 1.62-4.363 2.128-6.346 3.474-2.162 1.466-4.425 2.757-6.624 4.15-4.491 2.843-9.116 5.478-13.367 8.685-2.629 1.983-5.06 4.215-7.374 6.546-1.814 1.828-4.003 3.155-5.94 4.818-2.67 2.294-4.492 5.22-6.778 7.784-1.025 1.15-1.962 1.907-3.556 1.061-.772-.409-1.67-.106-2.212.467-2.262 2.388-4.706 4.615-6.609 7.329-.23.33-.36.652-.093 1.012 2.128-1.315 3.144-3.775 5.321-5.075.715-.427.587-1.693 1.41-2.243.468-.313.737-1.03 1.423-.875.548.123.622.683.643 1.17.032.758.074 1.754-.767 1.915-1.81.347-2.143 1.803-2.91 3.078-.98 1.632-2.155 3.199-3.49 4.553-1.204 1.223-1.885 2.709-2.664 4.138-2.108 3.864-4.864 7.331-6.611 11.432-1.023 2.4-2.602 4.552-3.495 7.061-.452 1.273-1.552 2.877-2.787 2.475-.726-.236-.345-2.556.405-3.63 1.666-2.387 2.856-4.955 3.695-8.119-1.04 1.062-2.137 1.64-2.528 2.94-.598 1.99-1.306 3.905-2.526 5.654-.674.965-.887 2.265-1.239 3.435-.227.76.339 1.063.943 1.216 1.308.332 1.354 1.19.951 2.225a68.557 68.557 0 0 1-1.28 3.108c-.223.498-.413.986-.35 1.536.04.36-.05.844.39.964.457.124.605-.308.753-.657.938-2.206 2.257-4.281 3.093-6.461.928-2.418 1.88-4.741 3.115-7.04 2.71-5.04 5.164-10.201 8.992-14.548 1.333-1.514 2.111-3.45 3.507-4.937.466-.498.922-1.342 1.646-.877.62.398.39 1.314.08 1.928-.503.996-1.071 1.976-1.732 2.873-2.56 3.475-4.595 7.283-6.963 10.862-1.477 2.233-2.487 4.668-3.907 6.898-.563.885-.858 1.94-1.29 2.911-1.893 4.26-4.342 8.292-5.637 12.794-.875 3.04-2.072 6.073-1.582 9.368.036.238-.034.574-.187.744-1.963 2.18-1.914 5.05-2.488 7.648-1.33 6.025-2.018 12.163-2.71 18.294-.137 1.206-.555 2.383-.888 3.56-.181.642-.52 1.282-1.323 1.084-.745-.184-.908-.898-.838-1.553.193-1.8.32-3.62.593-5.392.394-2.553.36-5.184 1.251-7.665.296-.826-.333-1.625-.928-1.833-.751-.261-.644.755-.909 1.212-.4.69-.179 1.455-.231 2.191-.266 3.715-.677 7.388-.266 11.16.289 2.65-.367 5.398-.531 8.106-.31 5.116.31 10.2.53 15.299.148 3.415.597 6.766 1.08 10.129.13.908.214 1.81-.086 2.693-.16.472-.109 1.19-.825 1.195-.567.005-.696-.584-.886-1.017-.67-1.53-.96-3.144-1.167-4.796a246.685 246.685 0 0 1-1.656-18.956c-.006-.106-.005-.215-.028-.318-.187-.862-.81-1.628-1.557-1.519-.731.107-.778 1.36-.562 1.79 1.138 2.282.261 4.695.638 7.034.648 4.029 1.096 8.112 1.472 12.17.303 3.263 1.377 6.305 1.818 9.507.279 2.022 1.136 3.979 1.455 6.028.513 3.296 2.206 6.288 2.436 9.651a.72.72 0 0 0 .076.31c1.592 2.698 1.584 6.039 3.473 8.626.796 1.091 1.093 2.4 1.495 3.68.633 2.018 1.773 3.85 2.292 5.932.186.748.459 1.435-.028 2.134-.562.806-1.143.118-1.703-.018-.377-.09-.745-.223-1.017.154-.258.356-.063.71.083 1.057 1.078 2.562 2.307 5.056 3.938 7.303 1.264 1.741 1.812 3.724 2.383 5.723.188.66-.062 1.277-.35 1.85-.617 1.221-1.873 1.356-2.439.13-1-2.167-2.642-4.023-3.085-6.457-.202-1.112-1.297-1.695-1.727-2.655-1.952-4.367-4.612-8.402-5.97-13.053-.773-2.646-2.547-4.888-3.072-7.685-.557-2.963-1.138-5.98-2.233-8.768-1.157-2.949-1.962-5.955-2.694-9.007-1.14-4.755-1.819-9.584-2.56-14.415-.909-5.92-1.4-11.838-1.443-17.804-.028-4.088-.015-8.173.397-12.26.32-3.164.134-6.388.87-9.51 1.447-6.15 1.752-12.518 3.924-18.552 1.27-3.529 1.41-7.466 2.686-10.992 1.493-4.125 2.79-8.326 4.572-12.375 1.368-3.107 3.051-6.064 4.28-9.25 1.603-4.158 3.912-8.001 6.651-11.533 1.61-2.076 2.222-4.67 3.93-6.727 2.666-3.21 4.503-7.065 7.835-9.79.979-.802 1.49-2.188 2.18-3.328.627-1.038 1.384-1.961 2.596-2.237 1.113-.253 1.407-1.255 2.005-1.946 1.485-1.716 3.127-3.269 4.204-5.378a6.233 6.233 0 0 1 3.55-3.051c1.218-.403 2.29-.976 2.991-2.218.677-1.2 1.768-1.93 3.31-1.82 1.49.108 2.265-.68 2.323-2.201.043-1.104.6-1.981 1.598-2.406 2.564-1.09 4.137-3.293 5.975-5.194 1.334-1.38 2.82-2.452 4.806-2.426 1.018.013 1.618-.285 1.874-1.288.39-1.528 1.87-2.011 2.936-2.805a41.862 41.862 0 0 1 10.473-5.706c2.364-.878 4.36-2.6 6.714-3.624 4.293-1.868 8.274-4.549 12.802-5.735 3.532-.925 6.822-2.782 10.604-2.813 1.784-.015 3.316-1.135 5.035-1.493 3.998-.832 8.058-1.426 11.99-2.493 3.454-.936 7.008-.93 10.49-1.601 3.183-.614 6.553-.333 9.84-.315 2.604.014 5.165-.996 7.78-.333 3.6.912 7.302.037 10.944.726 1.665.315 3.47.05 5.228.284 2.906.388 5.675 1.358 8.582 1.778 2.173.314 4.401.71 6.545.923 3.27.327 6.314 1.316 9.463 1.992 3.485.748 6.57 2.7 10.092 3.285 2.036.339 3.886 1.005 5.524 2.302.523.414 1.242.739 1.899.797 3.289.29 5.8 2.273 8.543 3.765 1.123.61 2.277 1.169 3.449 1.68a20.853 20.853 0 0 1 4.768 2.886c2.313 1.856 4.9 3.303 7.567 4.591.94.454 1.612 1.228 2.38 1.872 1.445 1.213 3.456 1.63 4.67 3.025 2.329 2.674 5.681 3.976 8.142 6.401 2.014 1.985 4.215 3.72 6.403 5.484 1.81 1.46 3.657 2.881 5.388 4.43 1.264 1.13 2.332 2.477 3.548 3.664 3.567 3.48 6.212 7.792 9.929 11.123 2.727 2.444 4.335 5.639 6.21 8.667.335.54.637 1.155 1.11 1.547 1.408 1.167 1.959 2.746 2.381 4.422.089.354.159.839.41 1.008 3.187 2.151 4.262 5.658 5.9 8.851 1.61 3.14 3.557 6.11 5.41 9.12.57.924 1.072 1.853 1.225 2.927.436 3.079 1.395 6.135 2.823 8.732 2.276 4.142 2.45 8.78 4.105 13.007a166.731 166.731 0 0 0 2.188 5.313c.412.953.787 1.896.796 2.899.031 3.392.876 6.652 1.66 9.897 1.179 4.888.817 9.959 1.987 14.836.277 1.153-.032 2.34-.173 3.496-.236 1.937.45 3.79.41 5.702-.005.265.106.567.012.79-.847 2.006-.43 4.074-.199 6.085.791 6.85-.985 13.388-2.072 20.036-.482 2.946-1.713 5.701-1.872 8.695-.014.262-.074.54-.186.776-2.498 5.274-3.287 11.058-4.953 16.58-.435 1.44-1.021 2.788-1.988 3.98-.593.733-.698 1.752-1.045 2.58-.898 2.142-.752 4.233-.874 6.44-.111 2.003-1.482 4.144-2.81 5.817-1.606 2.024-2.244 4.44-3.47 6.596-.289.51-.421 1.21-.951 1.445-2.566 1.13-3.193 3.735-4.53 5.798-.232.357-.394.78-.688 1.072-3.321 3.297-5.193 7.609-7.925 11.318-.666.904-1.27 1.828-2.191 2.52-.589.442-1.198.963-1.557 1.587-1.406 2.441-3.52 4.272-5.345 6.343-.959 1.087-1.899 2.157-2.579 3.442-.174.327-.337.747-.627.913-2.65 1.517-3.853 4.594-6.687 6.007-1.293.645-2.163 2.167-3.178 3.331-1.032 1.184-2.038 2.199-3.818 1.324-.816-.4-1.298.084-1.015.934.453 1.357-.248 1.967-1.313 2.49-1.16.569-2.107 1.425-3.045 2.312-1.398 1.323-2.905 2.478-4.868 2.936-.86.201-1.675.691-2.449 1.153-2.494 1.49-4.903 3.195-7.435 4.537-4.306 2.282-8.25 5.28-12.962 6.802-1.566.506-2.73 1.973-4.426 2.16-2.056.225-3.914 1.019-5.763 1.809-3.226 1.38-6.555 2.45-9.885 3.523-2.269.731-4.683.917-6.91 1.818-2.339.947-4.84 1.213-7.295 1.507-4.586.548-9.093 1.56-13.675 2.161-3.173.416-6.383.147-9.55.896-2.545.602-5.28.547-7.929.52-3.925-.038-7.927.115-11.75-.599-3.71-.693-7.538-.115-11.166-1.418-1.323-.476-2.841-.614-4.261-.574-3.47.099-6.632-1.375-10.002-1.747-1.323-.146-2.503-.847-3.776-1.23a83.473 83.473 0 0 0-9.596-2.29c-1.773-.313-3.172-1.457-4.876-1.955-3.674-1.074-7.298-2.371-10.687-4.155-3.076-1.619-6.284-2.882-9.49-4.179-.685-.277-1.415-.61-1.929-1.118-2.724-2.688-6.441-3.679-9.569-5.685-2.776-1.78-5.758-3.218-8.178-5.542-1.464-1.406-3.155-2.56-4.953-3.498-1.28-.668-2.043-1.854-3.074-2.76-1.879-1.648-4.05-2.926-5.747-4.808-1.497-1.66-3.208-3.103-4.996-4.477-2.794-2.148-4.732-5.129-7.022-7.766-.208-.239-.303-.603-.545-.78-3.082-2.246-5.11-5.304-7.087-8.517-2.084-3.387-4.993-6.213-7.266-9.503-.81-1.172-.878-2.327-.454-3.635.397-1.229 1.196-1.424 2.045-.692 1.308 1.125 2.747 2.136 3.35 3.95.713 2.145 1.954 3.894 3.833 5.355 2.096 1.628 3.442 4.045 4.865 6.283.534.84.937 1.773 1.64 2.512 2.817 2.963 5.351 6.199 8.418 8.92.986.876 2.128 1.574 3.182 2.373.338.256.74.52.916.877 1.797 3.66 5.676 5.03 8.387 7.682 3.31 3.238 7.703 5.114 10.818 8.675.962 1.1 2.795 1.44 4.236 2.112.287.134.67.115.906.298 3.997 3.116 9.288 3.997 13.024 7.546 1.294 1.23 3.04 1.168 4.546 1.777 2.27.918 4.509 1.903 6.599 3.22 3.905 2.461 8.427 3.08 12.798 4.137.363.087.745.118 1.09.25 6.19 2.362 12.793 2.905 19.184 4.377 6.873 1.583 13.893 2.07 20.889 2.612 2.185.169 4.463-.04 6.695-.17 6.85-.398 13.751-.43 20.514-1.608 6.11-1.064 12.293-1.834 18.274-3.596 3.856-1.136 7.743-2.174 11.471-3.707.444-.183.898-.343 1.331-.547.28-.132.641-.292.546-.68-.099-.399-.498-.347-.805-.324-1.547.115-3.03.538-4.501.99-4.312 1.325-8.544 3.05-12.945 3.91-4.224.826-8.456 2.194-12.888 1.612-.292-.038-.612.144-.92.224-2.006.522-3.969 1.102-6.125.736-1.852-.314-3.662.513-5.526.668-2.586.215-5.099-.27-7.648-.277-.21 0-.432-.105-.633-.068-6.043 1.094-11.968-.538-17.948-.844a23.86 23.86 0 0 1-6.727-1.314c-2.08-.74-4.354-.3-6.422-1.1-.294-.114-.643-.096-.924-.228-.539-.255-1.12-.592-.9-1.307.19-.624.798-.624 1.348-.564 2.749.301 5.488.67 8.12 1.56 1.69.573 3.4.841 5.192.713 1.763-.126 3.493.229 5.238.475 3.04.429 6.075.747 9.193.613 2.951-.127 5.948-.188 8.908.038 2.005.154 3.908-.18 5.846-.519 1.465-.256 2.95-.502 4.431-.544 3.395-.097 6.826.122 10.137-.77 3.468-.932 7.17-.658 10.525-2.16.811-.363 1.748-.444 2.628-.653 5.385-1.274 10.636-3 15.805-4.945 2.978-1.12 5.805-2.635 8.741-3.875 1.758-.742 3.372-1.749 5.163-2.454 3.356-1.322 6.397-3.313 9.471-5.191 1.45-.886 2.853-1.858 4.382-2.604 2.896-1.415 5.35-3.386 7.7-5.84-1.073-.464-1.874-.236-2.702.193-.944.49-1.908.953-2.9 1.333-.432.166-1.05.69-1.407.008-.308-.588.312-.976.701-1.29 1.157-.935 2.27-1.962 3.475-2.791 2.705-1.86 5.29-3.89 7.977-5.773 1.822-1.275 3.548-2.887 4.903-4.746.701-.964 1.445-1.89 2.43-2.52 3.068-1.966 5.182-4.876 7.46-7.587 1.137-1.352 2.608-2.354 3.583-3.853 1.765-2.716 3.82-5.223 5.63-7.921 2.998-4.47 5.788-9.06 8.671-13.596.737-1.16 1.741-2.152 2.648-3.199.481-.555 1.13-.703 1.72-.254 1.321 1.007 1.94.074 2.191-.929.517-2.061 1.614-2.822 3.715-2.358 1.002.22 2.5-1.98 2.12-2.955-.3-.765-.637-.248-.951-.01-.482.366-.787 1.253-1.527.895-.818-.396-.795-1.347-.788-2.132.016-1.78 1.214-3.153 1.758-4.76.472-1.4 1.117-2.74 1.511-4.206-1.085.713-1.519 1.862-1.85 3.016-1.035 3.603-2.837 6.825-4.795 9.977-.202.325-.435.7-.87.495-.548-.258-.497-.771-.33-1.252.628-1.812 1.098-3.705 1.948-5.407 1.014-2.03 1.498-4.34 3.178-6.043 1.036-1.05.869-2.583 1.248-3.895 1.187-4.114 2.452-8.202 3.714-12.292 1.371-4.448 2.831-8.935 2.868-13.721.021-2.813.976-5.525 1.49-8.286.068-.367.283-.75.225-1.09-.644-3.767 1.056-7.448.605-11.1-.39-3.174.072-6.341-.588-9.524-.585-2.823.003-5.88-.504-8.73-.542-3.052-.35-6.183-1.35-9.198-.743-2.236-.85-4.666-1.406-6.995-1.3-5.448-3.389-10.665-4.669-16.084-1.294-5.482-4.194-10.216-6.15-15.375-.764-2.015-1.944-3.874-2.94-5.814-.18.118-.323.158-.338.227-.223 1.02-.574 2.187-1.577 2.418-1.14.261-1.7-.978-2.21-1.793-1.604-2.56-3.164-5.154-4.605-7.808-.69-1.269-1.95-2.16-2.295-3.625-.153-.653-.646-1.433.038-1.934.697-.51 1.267.242 1.834.58.566.338.91.88 1.205 1.463 1.174 2.329 2.365 4.649 3.549 6.973a5.281 5.281 0 0 0 1.396 1.733c.463.374.95.51 1.431.046.441-.428.528-.956.172-1.452-2.387-3.32-3.862-7.252-6.858-10.164-1.057-1.028-1.167-2.602-2.1-3.74-1.384-1.688-2.893-3.29-3.938-5.235-.151-.282-.337-.55-.454-.844-.228-.569-.352-1.203.176-1.631.569-.462 1.092-.037 1.583.3zM9.329 193.242c.15-.827.64-1.552.537-2.47-.324-2.915-1.238-5.705-1.793-8.57-.192-.993.015-2.092-.504-3.04-.493.175-.408.554-.471.842-.563 2.546.345 4.967.79 7.394.36 1.96.297 4.068 1.431 5.851.807 4.446 1.862 8.784 3.433 13.072 1.238 3.377 2.291 6.837 3.643 10.197.871 2.165 2.065 4.107 3.225 6.23.46-.671.47-1.163.279-1.703-.814-2.309-1.417-4.715-2.452-6.919-2.346-5-3.982-10.237-5.75-15.443zm-.565-38.7c0 .32-.046.648.01.958.094.51-.356 1.398.505 1.408.625.008 1.297-.525 1.49-1.266.118-.457.138-.96.098-1.433-.43-5.108.492-10.166.798-15.23.22-3.629.48-7.46 2.11-10.914.205-.435.318-.998.94-.881.555.104.736.625.713 1.117-.035.74-.197 1.474-.254 2.214-.029.367.001.824.43.946.52.149.798-.265.925-.68.391-1.27.846-2.536 1.078-3.839.815-4.566 1.837-9.078 3.213-13.508.616-1.983 1.054-4.018 1.82-5.959.17-.429.386-1.193-.288-1.387-.558-.16-.708.522-.878.954-.28.712-.692 1.33-1.27 1.82-.374.315-.595 1.085-1.243.726-.616-.34-.455-1.026-.3-1.596.643-2.357 1.26-4.721 2.414-6.904.236-.447.993-1.087.192-1.481-.763-.376-1.032.533-1.298 1.069-.183.367-.162.83-.273 1.24-.442 1.634-.783 3.307-1.377 4.885-1.104 2.933-2.266 5.852-3.586 8.693-.785 1.69-.822 3.505-1.165 5.243-.576 2.91-2.497 5.667-1.275 8.851.095.247-.039.658-.195.914-1.268 2.08-1.696 4.344-1.978 6.754zm283.62 86.404c-.86.31-1.062.704-1.3 1.046-2.307 3.316-4.401 6.76-7.024 9.881-1.73 2.057-3.572 4.039-5.222 6.192-2.564 3.345-5.699 6.252-8.593 9.343-.243.26-.691.5-.309.906.314.334.7.15.989-.128 1.344-1.285 2.693-2.565 4.013-3.874.682-.676.81-1.749 1.631-2.345 2.365-1.72 3.847-4.23 5.683-6.42 2.171-2.587 4.233-5.265 6.406-7.851zm-36.089 40.698c1.052-1.304 2.625-1.178 3.42-2.117 1.82-2.147 4.288-3.685 5.73-6.173.313-.54.89-.728 1.405-1.01 1.532-.84 2.283-1.92 2.16-3.029-1.86.963-3.058 2.794-4.741 3.868-2.03 1.296-3.891 2.771-5.775 4.235zM223.042 19.738c.589 1.307 1.041 2.333 2.55 1.825.266-.09.594-.032.72.207.888 1.685 2.788 1.87 4.197 2.745 1.107.689 2.074 1.751 3.4 1.997 2.41.446 4.276 1.828 6.11 3.29.472.377.963.667 1.54.798.306.069.672.142.8-.276.09-.293-.11-.522-.35-.647-.612-.32-1.215-.693-1.869-.892-2.2-.67-3.91-2.106-5.63-3.52-.708-.582-1.406-1.24-.5-2.263.385-.436.05-.815-.377-1-.498-.216-.653.082-.682.547-.065 1.033-.694.56-1.259.51zm-37.319-10.75c.84 1.248 1.683 1.461 2.586 1.539 2.336.2 4.662.366 6.818 1.481.622.322 1.413.493 2.175.157.522-.23 1.023-.07 1.544.124 1.198.445 2.418.83 3.633 1.228.726.238 1.415.215 2.508-.578zM6.883 169.978c-.01-2.969-.45-5.476-.924-7.977-.065-.34-.222-.812-.704-.703-.46.104-.417.583-.388.941.354 4.328.71 8.655 1.105 12.979.056.61.475 1.208 1.147 1.073.577-.115.391-.71.325-1.21zm93.352-151.081c-.09.047-.178.099-.264.154zm5.946-1.993c1.213-1.139 2.804-1.767 4.513-1.84 2.007-.086 3.742-1.243 5.732-1.393.415-.03.786-.34.675-1.034-1.324.57-2.888-.386-4.01.383-2.327 1.596-5.08 1.797-7.575 2.79l-5.281 3.087c1.87-.999 4.232-.382 5.946-1.993zm77.304-7.985c-1.764-.83-3.077-1.878-4.73-2.274-.235-.056-.607-.044-.748.1-.889.916-1.941.628-2.996.527-.849-.08-2.206-.035-2.197.686.01.837 1.288 1.273 2.246 1.22 1.005-.055 1.974.058 2.958.115zm-25.403-2.085l.03.447c.2.029.4.07.602.084 3.447.26 6.896.511 10.343.777.733.056 1.483.317 2.133-.24.064-.056.04-.348-.041-.42-.632-.564-1.385-.6-2.213-.665-1.71-.134-3.499.233-5.124-.562zM47.954 56.287c4.065-2.025 6.064-5.771 9.315-8.853-2.496.366-4.153 1.167-5.14 3.11-.477.942-.96 1.956-1.956 2.464zm268.202 111.501c-.092-.98-.126-2.107-.333-3.201-.094-.492.077-1.463-.698-1.372-.822.098-.368.94-.345 1.478.111 2.695.36 5.39-.037 8.08-.14.948-.405 1.878-.517 2.828-.057.484-.227 1.256.465 1.343.762.097.888-.712.932-1.254zM85.498 25.946c-1.606-.048-3.157.691-4.226 1.487-2.567 1.914-5.45 3.327-7.936 5.334a6.555 6.555 0 0 0-.914.873c-.115.138-.19.44-.117.58.16.304.464.177.695.052 1.029-.56 2.277-.94 2.896-1.938 1.124-1.816 3.145-2.302 4.656-3.52zm-66.3 68.766c-2.267 4.127-4 8.46-4.896 13.099zM6.706 152.806c-.182-.5-.106-1.084-.664-1.259-.395-.124-.55.271-.644.565-.755 2.343-.584 4.734-.313 7.12.045.4.317.876.86.77.562-.112.776-.592.674-1.11zm3.057-29.642c-1.432 4.069-1.413 8.313-3.124 12.122-.235.522-.08 1.113.581 1.27.607.145 1.058-.222 1.233-.77.142-.443.164-.94.16-1.411-.023-3.204.175-6.379 1.128-9.468zm303.497 16.139c.633-.578.692-.936.67-1.318-.157-2.766-1.334-5.36-1.375-8.145a.647.647 0 0 0-.1-.302c-.192-.323-.07-1.008-.686-.851-.484.123-.376.66-.389 1.094zm1.026 2.965c.09-.422.16-.845-.133-1.222-.167-.215-.39-.435-.66-.263-.13.082-.21.37-.188.55.378 3.061.775 6.121 1.17 9.18.042.318.088.742.464.732.519-.012.462-.51.444-.86-.124-2.322.001-4.683-.955-6.888zm-1.212 40.894c-.02 2.244-.652 4.377-1.212 6.523-.113.434-.228.93.36 1.005.487.061.504-.445.554-.812.114-.84.021-1.69.275-2.528.702-2.325 1.558-4.621 1.52-7.108-.007-.4.284-.946-.33-1.04-.463-.07-.819.418-.88.8zM88.836 23.982c1.959.48 6.85-1.752 8.167-3.835z"/></g><g transform="rotate(129 162.5 159.5)"><path d="M149.451 39.32c4.459-.191 8.917-.505 13.376-.307 5.409.241 10.844.342 16.135 1.724 1.607.42 3.278.044 4.906.522 4.015 1.179 8.05 2.303 12.112 3.31 4.094 1.013 7.892 2.755 11.76 4.354 1.904.787 3.872 1.47 5.83 2.114 2.585.85 4.596 2.6 6.893 3.892 2.778 1.561 5.664 3.032 8.137 5.002 1.899 1.513 3.855 2.974 5.717 4.543 2.151 1.813 4.667 3.124 6.687 5.145 3.931 3.93 8.231 7.508 11.725 11.852 1.35 1.68 3.145 3.03 4 5.118.233.572.755 1 1.258 1.419 1.227 1.022 2.42 2.109 2.863 3.73.368 1.345 1.792 1.813 2.379 2.942 1.137 2.19 2.424 4.318 3.624 6.449 1.802 3.2 2.705 6.825 4.907 9.803.892 1.206.775 2.742 1.054 4.137.207 1.036.54 1.94 1.362 2.625.554.462.849 1.096 1.086 1.745 1.369 3.742 2.78 7.478 3.349 11.449.325 2.274 1.428 4.374 1.615 6.637.347 4.174 1.283 8.286 1.285 12.492 0 .266-.07.569.03.794 1.151 2.591.75 5.28.688 7.99-.103 4.464-.16 8.91-.763 13.352-.391 2.886-1.043 5.724-1.313 8.646-.208 2.25-.56 4.624-1.6 6.78-.743 1.538-.938 3.272-1.204 4.95-.378 2.393-1.24 4.582-2.252 6.776-1.979 4.291-3.62 8.74-5.652 13.004-2.027 4.252-3.991 8.555-6.993 12.283-1.562 1.94-2.866 4.09-4.245 6.173-2.533 3.821-5.559 7.245-8.734 10.518-1.162 1.198-1.88 2.673-3.07 3.846-2.282 2.25-5.271 3.752-7.208 6.264-2.138 2.772-5.53 3.69-7.854 6.086-2.734 2.818-6.177 4.767-9.51 6.626-2.774 1.548-5.52 3.328-8.66 4.313-2.104.66-4.246 1.468-6.173 2.537-2.855 1.585-5.93 2.3-9.036 2.976-1.72.374-3.4.729-4.994 1.557-2.7 1.405-5.702 1.994-8.622 2.716-2.408.595-4.945.503-7.418.93-2.748.474-5.58.555-8.378.618-2.854.064-5.743-.391-8.564-.105-5.934.603-11.617-1.063-17.425-1.527-.727-.058-1.43-.382-2.151-.55-5.689-1.32-11.368-2.692-16.903-4.557-2.814-.949-5.492-2.293-8.266-3.368-2.778-1.077-5.512-2.239-8.022-3.848-1.563-1.002-3.353-1.523-4.991-2.346-2.645-1.33-5.057-3.032-7.319-4.752-3.591-2.732-7.607-4.828-11.014-7.87-2.136-1.907-4.003-4.176-6.545-5.67-1.373-.807-2.332-2.179-3.254-3.484-2.459-3.481-5.565-6.417-8.171-9.765-2.088-2.68-3.975-5.516-5.945-8.286-1.076-1.514-2.036-3.123-3.23-4.535-2.177-2.574-3.348-5.776-4.42-8.75-1.398-3.873-3.04-7.687-4.224-11.661-.816-2.736-1.447-5.54-2.525-8.214-.626-1.552-.901-3.29-1.064-4.971-.312-3.231-1.115-6.392-1.275-9.644-.049-.994-.33-1.998-.637-2.955-.712-2.221-.875-4.441-.392-6.735.216-1.025-.529-1.936-.596-2.95-.234-3.553.014-7.101.122-10.651.014-.475.198-.953.166-1.421-.414-6.135 1.141-12.005 2.298-17.94.546-2.8 1.661-5.345 2.65-7.975.786-2.089.867-4.432 1.48-6.6.588-2.074 1.324-4.133 2.602-5.92.675-.944.897-2.057 1.158-3.125.566-2.325 1.838-4.31 3.069-6.263 1.47-2.332 2.196-5.105 4.25-7.09.313-.302.44-.842.55-1.297.261-1.067.714-2.01 1.575-2.712 1.95-1.591 2.663-4.065 4.275-5.914 2.538-2.913 4.563-6.247 7.514-8.835 1.422-1.247 2.472-2.894 3.823-4.256 1.05-1.06 2.05-2.13 3.28-3.007 1.892-1.351 3.298-3.237 5.18-4.662 4.725-3.58 9.291-7.386 14.516-10.229 2.748-1.495 5.657-2.715 8.56-3.894 1.58-.642 3.015-1.546 4.58-2.219 2.066-.887 4.072-1.776 6.35-1.89.298-.016.716-.135.861-.351 1.544-2.307 4.187-2.083 6.407-2.768 1.622-.5 3.26-.882 4.785-1.691 1.503-.799 3.096-1.328 4.864-1.386 3.41-.11 6.7-1.09 10.058-1.586zm91.815 43.951c.197 1.64.954 2.512 1.905 3.204.659.479.951 1.11 1.17 1.837.342 1.133.184 1.739-1.166 1.173-.501-.21-.956-.152-1.28.298-.318.439-.026.823.228 1.157.934 1.224 1.753 2.532 2.902 3.595 2.965 2.746 4.958 6.258 6.711 9.77 1.19 2.382 2.626 4.53 4.07 6.71.535.808.897 1.637 1.201 2.564.388 1.177.06 2.76 1.306 3.478 1.62.934 2.184 2.399 2.564 4.033.448 1.921.897 3.863 1.766 5.623 1.248 2.526 1.73 5.222 2.333 7.926.369 1.66.062 3.41.768 4.978.952 2.117 1.457 4.309 1.396 6.628-.046 1.764.163 3.505.387 5.25.407 3.16.327 6.348.401 9.523.094 4.005-.56 7.947-1.514 11.814-.307 1.246.396 2.612-.513 3.693-.527.627-.726 1.286-.664 2.055.183 2.267-.634 4.339-1.57 6.272-1.475 3.043-1.914 6.375-2.93 9.538-.625 1.948-2.013 3.164-3.016 4.733a.87.87 0 0 1-1.143.298c-.459-.242-.447-.712-.384-1.13.196-1.313.321-2.648 1.107-3.796 1.743-2.546 2.58-5.498 3.378-8.395 1.336-4.849 2.849-9.67 3.343-14.722.3-3.065.988-6.112 1.05-9.176.082-4.124-.041-8.278-.639-12.37a32.742 32.742 0 0 1-.357-5.528c.04-1.788-.01-3.706-.602-5.357-2.23-6.21-3.138-12.811-5.707-18.906-.445-1.054-.365-2.368-1.37-3.144-.677-.522-1.065-1.167-1.27-1.963-.343-1.332-1.091-2.43-2.054-3.371-1.104-1.078-1.7-2.426-2.238-3.823-.209-.543-.39-1.11-.688-1.605-1.892-3.143-4.465-5.803-6.344-8.963-1.251-2.104-3.055-3.807-4.591-5.69-1.63-1.996-3.164-4.239-5.262-5.734-2.208-1.573-4.234-3.194-5.493-5.607-.706-1.354-2.286-1.283-3.236-2.191-2.646-2.53-5.855-4.272-8.993-6.016-3.75-2.084-7.358-4.388-11.057-6.547-2.692-1.573-5.607-2.824-8.582-3.33-4.842-.824-9.308-2.873-14.174-3.656-3.966-.639-7.945-1.255-11.924-1.605-3.574-.314-7.207-.019-10.805-.402-.893-.095-1.753-.513-2.68-.281-5.991 1.493-12.214 1.589-18.218 3.042-1.6.387-3.04 1.352-4.74 1.307-1.358-.036-2.539.442-3.813.862-6.123 2.016-11.739 5.082-17.413 8.04-1.46.76-2.625 1.988-4.188 2.6-2.117.828-3.86 2.226-5.53 3.734-.749.677-1.485 1.463-2.377 1.867-3.387 1.536-5.514 4.5-7.963 7.031-2.98 3.083-6.045 6.082-9.034 9.156-.52.535-1.251 1.127-1.963.6-.792-.584-.228-1.451.18-1.99 1.466-1.938 3.264-3.6 4.933-5.35 1.845-1.936 3.59-3.98 5.612-5.772 2.37-2.1 4.294-4.719 7.446-5.827.983-.346 1.705-1.087 2.18-2.012.38-.74.232-1.526-.313-2.076-.532-.538-1.088.012-1.572.298-.547.323-1.059.707-1.59 1.057-2.007 1.319-3.165 3.586-5.322 4.743-1.041.559-1.916 1.349-2.662 2.252-1.128 1.366-2.404 2.567-3.857 3.567-1.166.803-2.062 1.78-2.73 3.053-.803 1.528-2.058 2.706-3.52 3.625-.457.287-1.044.42-1.47-.064-.47-.532-.107-.983.283-1.382.372-.382.772-.738 1.123-1.137.402-.458 1.22-.991.751-1.544-.384-.454-1.32-.175-1.943.113-.363.167-.644.542-.92.86-.732.84-1.386 1.74-2.284 2.439-.793.618-.81 1.703-1.289 2.524-.077.132-.006.453.112.573.236.24.466.042.681-.131.328-.263.641-.593 1.02-.731.526-.192 1.147-.48 1.63.088.433.508.35 1.114.067 1.653-.37.705-.727 1.444-1.236 2.044-2.406 2.839-4.631 5.789-6.208 9.189-.266.572-.666 1.093-1.06 1.592-1.584 2.003-2.62 4.337-3.882 6.526-.945 1.64-2.075 3.199-2.691 5.045-.244.731-.979 1.444-1.892.817-.801-.551-.455-1.281.002-1.96.263-.389.436-.844.61-1.285.097-.244.13-.56-.174-.688-.31-.13-.562.13-.617.362-.42 1.727-1.614 3.113-2.096 4.803-1.046 3.667-2.497 7.202-3.36 10.936-.749 3.24-2.005 6.354-2.27 9.725-.082 1.045-.328 2.374-2.067 1.84-.657-.203-.978.232-1.062.855-.694 5.156-2.223 10.284-.501 15.52.22.67.075 1.358.054 2.048-.074 2.426-.87 4.851-.075 7.28.32.975.27 1.972.348 2.972.162 2.102.181 4.235.505 6.297.3 1.908.606 3.866 1.324 5.714.427 1.097.4 2.3.302 3.478-.085 1.009-.483 1.67-1.632 1.349-1.183-.33-1.39.297-1.08 1.176.398 1.122.487 2.29.708 3.435.87 4.513 3.61 8.387 4.37 12.95.308 1.845 1.883 3.33 2.201 5.083.784 4.313 3.701 7.412 5.896 10.834 3.293 5.132 7.565 9.574 11.583 14.182 1.586 1.818 3.623 3.339 4.58 5.665.567 1.382 1.66 2.222 2.884 2.846.787.4 1.58.823 2 1.522 1.557 2.587 4.315 3.753 6.524 5.518 3.577 2.858 7.766 4.94 11.054 8.192 1.53 1.513 3.655 1.59 5.362 2.684 2.455 1.573 4.968 3.32 7.711 4.118 4.301 1.253 8.312 3.265 12.662 4.355 4.74 1.188 9.241 3.24 14.205 3.654 3.596.3 7.174.869 10.743 1.426 3.062.478 6.159.144 9.23.588 1.562.227 3.048.932 4.707.682 3.137-.473 6.286-.888 9.441-1.22 2.473-.261 4.913-1.21 7.426-.627 1.478.343 2.734-.047 3.968-.691.859-.448 1.804-.658 2.661-1.061 2.208-1.04 4.699-.904 6.925-1.707 5.042-1.82 10.104-3.576 15.075-5.616 3.756-1.542 7.058-3.81 10.683-5.517a12.23 12.23 0 0 0 3.514-2.455c.243-.246.46-.475.286-.818-.184-.36-.533-.313-.837-.198-1.097.413-2.259.785-3.014 1.721-.934 1.158-2.187 1.797-3.396 2.577-1.848 1.19-3.967 1.718-5.863 2.703-3.47 1.804-7.49 2.29-10.73 4.605-.248.178-.724.008-1.08.072-2.541.454-5.374-.14-7.604 1.232-2.514 1.548-5.166 1.777-7.912 1.978-1.374.101-2.751.182-4.128.215-.406.01-.894-.096-.975-.629-.023-.15.184-.48.293-.482 1.372-.04 2.41-1.064 3.76-1.208a31.29 31.29 0 0 0 8.901-2.29c1.595-.673 3.241-.995 4.939-1.129.691-.054 1.394-.024 2.042-.303 4.718-2.027 9.854-2.769 14.463-5.317 3.725-2.06 7.287-4.347 10.887-6.578 1.786-1.107 3.37-2.574 4.927-4.007 1.438-1.323 3.264-2.317 4.133-4.324-2.158.398-3.76 1.636-5.12 2.968-2.446 2.395-5.53 3.63-8.38 5.31-1.402.825-3.061.914-4.384 1.855-4.788 3.408-10.35 5.08-15.796 7.01-.852.302-1.752.413-2.151-.66-.396-1.065.453-1.38 1.208-1.695 4.71-1.963 9.628-3.379 14.284-5.489 1.222-.553 2.45-1.04 3.347-2.086a3.045 3.045 0 0 1 1.298-.902c3.135-1.126 5.85-3.02 8.443-5.006 4.447-3.405 8.844-6.844 12.776-10.926 2.854-2.964 5.43-6.18 8.35-9.099 2.906-2.907 5.038-6.614 7.277-10.143 1.227-1.934 1.973-4.143 3.347-5.935 1.243-1.622 1.478-3.485 2-5.3.074-.254.053-.568-.215-.707-.326-.169-.417.165-.603.342-2.315 2.21-3.29 5.294-4.807 7.957-2.113 3.707-4.661 7.029-7.177 10.408-.805 1.08-1.65 2.09-1.8 3.486-.07.631-.266 1.144-1.044 1.156-1.328.02-2.08.878-2.79 1.865-1.084 1.508-1.945 3.195-3.366 4.441-2.75 2.413-5.718 4.549-8.664 6.71-.517.38-1.06.707-1.417 1.26-.713 1.102-1.781 1.63-3.028 1.888-.527.11-1.117.344-1.467-.194-.427-.655.126-1.118.57-1.472 1.562-1.246 3.276-2.259 4.72-3.709 1.175-1.18 2.385-2.379 3.791-3.378 1.936-1.375 3.605-3.126 5.59-4.467.988-.667 1.016-1.987 1.868-2.741 3.242-2.871 5.674-6.435 8.351-9.788.392-.49.674-1.086.922-1.669.544-1.284 1.283-2.434 2.107-3.558 1.193-1.627 2.265-3.36 2.983-5.245.8-2.095 1.596-4.157 2.907-6.01 1.103-1.558 1.673-3.47 3.17-4.789.23-.202.187-.823.69-.629.48.187.274.64.084.952-.79 1.307-.978 2.804-1.355 4.24-.128.49-.625 1.205.348 1.39.702.135 1.485.346 1.874-.654.535-1.372 1.225-2.686 1.706-4.075 1.097-3.165 2.198-6.332 3.126-9.548 1.044-3.616 2.058-7.255 2.802-10.94 1.066-5.276 1.087-10.68 1.472-16.03.195-2.711.75-5.436-.055-8.22-.458-1.58-.274-3.362-.28-5.053-.011-3.104.047-6.2-3.248-7.965-.25-.134-.438-.46-.564-.74-.811-1.801-1.395-3.673-1.65-5.64-.062-.48.045-.89.526-1.028.617-.178.871.26.981.767.18.821.364 1.628 1.244 2.365.661-1.885.252-3.56-.298-5.109-1.499-4.223-3.155-8.39-4.746-12.581-.11-.29-.163-.737-.55-.646-.533.124-.287.596-.216.932.078.363.238.707.328 1.068.696 2.809 2.617 5.2 2.784 8.19.045.799.867 1.98-.02 2.295-1.041.37-1.364-1.047-1.602-1.795-.983-3.1-2.37-6.025-3.572-9.031-1.895-4.74-4.185-9.289-6.532-13.805-.72-1.386-1.787-2.619-2.653-3.958-1.47-2.274-2.396-4.937-4.793-6.598-.987-.684-.662-2.064.512-2.502.927-.348.708-.702.303-1.26zM82.35 84.595c2.01-.743 3.014-2.19 3.429-4.096.026-.117.052-.234.08-.349zm5.084-6.16c1.238-.131 1.926-.978 2.783-1.697 1.726-1.448 3.203-3.215 5.166-4.352 3.588-2.076 6.895-4.525 9.722-7.535 1.554-1.656 3.659-1.683 5.511-2.446.413-.17 1.02-.056 1.206.506.159.482-.043.974-.39 1.319-.254.252-.635.371-.945.57-2.12 1.364-4.575 2.251-6.192 4.328-.235.303-.87.514-.527 1.007.332.477.934.494 1.462.28 1.371-.553 2.81-.895 4.077-1.767 1.835-1.262 3.692-2.614 5.74-3.421 4.841-1.911 9.157-4.987 14.311-6.219 3.03-.724 5.929-1.982 8.947-2.772 4.684-1.225 9.592-1.22 14.295-2.456 1.404-.369 3.032-.51 4.422-.18 2.658.63 5.303.564 7.923.271 2.747-.308 5.408-.025 8.081.418 4.556.755 9.088 1.675 13.662 2.3 2.983.408 5.953 1.01 8.582 2.309 2.135 1.055 4.253 1.832 6.549 2.27.155.029.313.08.452.155 2.063 1.117 4.354 1.689 6.335 3.088 1.749 1.236 4.035 1.663 5.805 2.964 2.605 1.915 5.766 3.031 7.971 5.503.719.805 1.525 1.45 2.407 2.064 2.703 1.881 5.26 3.954 7.48 6.399.7.77 1.1 1.769 2.165 2.248 1.608.724 2.91 1.876 3.962 3.306.31.42.658.895 1.271.839.322-.03.618-.265.66-.613a1.407 1.407 0 0 0-.802-1.454c-1.628-.754-2.294-2.307-3.226-3.643-.242-.347-.452-.692-.794-.979-2.264-1.901-4.945-3.139-6.996-5.497-2.142-2.463-5.22-4.117-7.915-6.09-.56-.411-1.373-.674-.933-1.544.393-.775 1.167-.482 1.687-.16 2.74 1.696 5.681 3.163 7.697 5.79 1.056 1.377 2.45 1.806 4.105 1.92-2.796-1.52-4.176-4.602-7.052-6.051-1.645-.83-3.296-1.834-4.591-3.116-1.194-1.182-2.62-1.781-4.003-2.54-.694-.38-1.327-.31-1.707.528-.515 1.137-1.308 1.206-2.355.664-2.963-1.536-5.785-3.36-9.021-4.346-2.419-.736-4.461-2.428-7.098-2.694-.96-.098-1.894-.687-2.783-1.16-.686-.366-1.133-.946-.866-1.847.512-1.729-.055-2.55-1.886-2.633-2.36-.108-4.626-.698-6.873-1.324-3.65-1.017-7.384-1.48-11.12-1.984-1.306-.176-2.657.287-3.849-.11-1.333-.443-2.637-.78-4.027-.787-3.45-.017-6.906.092-10.351-.048-3.94-.16-7.689.956-11.528 1.451-.532.069-1.39.199-1.35.873.045.785.919.468 1.443.578.486.104.996.179 1.068.772.072.597-.266 1.036-.794 1.257-.332.139-.728.218-1.085.19-1.573-.122-3.033.352-4.546.652-1.681.333-3.143 1.286-4.81 1.5a20.156 20.156 0 0 0-5.343 1.462c-3.461 1.473-7.112 2.509-10.386 4.426-.668.392-1.389.386-1.8-.374-.373-.69.1-1.234.588-1.66.313-.273.707-.518 1.105-.62 2.027-.512 3.745-1.773 5.75-2.332.42-.118.865-.312.729-.864-.122-.493-.58-.638-1.017-.564-.462.078-.918.252-1.35.446-1.69.756-3.222 1.893-5.1 2.2-.92.151-1.64.6-2.416 1.1-1.87 1.203-3.8 2.346-5.815 3.277-2.124.981-4.258 1.675-6.28 3.125-2.59 1.859-4.62 4.64-7.905 5.538-.349.096-.704.525-.867.885-.524 1.161-1.395 2.023-2.354 2.775-1.186.93-2.079 2.246-3.275 3.04l-1.051 1.33c.08-.019.165-.033.255-.043zm-.255.045c-.824.198-1.124.89-1.32 1.67zM66.347 99.228c.13-.694.179-1.103-.284-1.25-.635-.202-.941.237-1.273.695-1.635 2.262-2.31 5.132-4.479 7.056-.146.13-.246.365-.276.564-.326 2.157-1.5 3.959-2.41 5.874-.272.572-.96 1.351-.01 1.77.9.398 1.257-.5 1.577-1.178 1.02-2.166 2.006-4.348 3.057-6.5.745-1.524 1.375-3.167 2.72-4.275zm36.493-37.667c-.344-.533-.839-.413-1.326-.24-1.322.474-2.183 1.65-3.364 2.292-1.76.96-3.697 1.603-4.782 3.488-.173.301-.574.463-.848.714-2.916 2.674-6.088 5.076-8.663 8.115-.21.247-.497.539-.29.83.307.437.673.094.956-.112.429-.311.853-.64 1.224-1.014 1.734-1.755 3.146-3.829 5.303-5.16.938-.579 1.918-1.173 2.67-1.96 2.19-2.295 4.725-4.067 7.55-5.467zm132.71 182.906c2.687-.06 16.79-15.411 16.884-18.268zM63.276 110.8c.847-.343 1.187-1.065 1.567-1.737 1.816-3.21 3.375-6.554 5.584-9.56a61.073 61.073 0 0 0 3.144-4.754c.189-.315.432-.676.073-1.009-.375-.347-.68-.06-.956.202-1.197 1.14-2.382 2.298-2.944 3.904-.415 1.189-1.045 2.253-2.045 2.98-1.123.816-1.462 1.831-1.386 3.15.04.713.233 1.738-.512 2.054zm65.207-56.098c.638.006 1.278.024 1.865-.303 2.358-1.314 4.994-1.73 7.57-2.346.821-.196 2.038-.538 1.759-1.423-.28-.888-1.502-.41-2.257-.147-1.402.489-2.778.958-4.27 1.2-1.93.312-3.807.96-5.701 1.485-.41.114-.875.31-.841.824.041.628.596.661 1.077.705zM76.445 83.943c-1.096.655-2.208 1.283-3.272 1.985-.216.143-.349.563-.35.857-.012 1.68-1.06 2.665-2.21 3.684-1.22 1.083-2.306 2.323-2.865 3.922-.121.346-.384.709-.002 1.015.394.315.8.16 1.164-.116.701-.527 1.079-1.285 1.516-2.02 1.281-2.155 2.076-4.64 4.338-6.133zm187.133 124.503c-1.473 2.39-2.851 4.58-4.183 6.796-1.4 2.329-2.395 4.914-4.428 6.833-.352.332-.495.8-.07 1.098.499.349.745-.137.95-.512 1.35-2.467 3.266-4.541 4.843-6.853 1.301-1.91 1.749-4.127 2.935-6.029zm12.498-71.953c.088-.674-.173-1.304-.815-1.34-1.522-.082-2.055-1.063-2.477-2.276-.125-.361-.307-.935-.852-.605-.41.248-.343.75-.062 1.133.673.921.731 2.006.646 3.046-.115 1.401.851 2.35 1.242 3.53.13.388.676.626.82.135zM207.974 59.33c-.115-.49-.51-.68-.896-.847-3.078-1.33-6.153-2.667-9.25-3.95-.53-.22-1.367-.788-1.68-.082-.286.638.47 1.188 1.12 1.492.24.112.502.257.749.248 1.47-.055 2.675.663 3.809 1.415 1.581 1.05 3.582.964 5.136 2.059zm-38.01-13.584c1.419.41 2.808-.085 3.93.364 3.22 1.287 6.717 1.143 9.972 2.169.862.272 1.753.443 2.668.356.517-.05.713-.348.308-.717-.59-.538-1.548-1.14-2.094-.885-2.17 1.014-3.952-.598-5.957-.644-2.077-.049-3.985-1.713-6.247-.812-.245.098-.62-.088-.922-.184zM56.739 115.674c-.667.151-1.023.502-1.08.885-.282 1.926-1.392 3.517-2.033 5.293-.233.644-.413 1.309-.593 1.97-.109.404.013.748.423.912.494.199.685-.163.79-.526.167-.57.602-1.026.768-1.544zm198.936-13.128c.045-.104.137-.209.12-.29-.686-3.158-2.915-5.265-5.074-7.416-.192-.191-.463-.361-.684-.093-.296.358-.046.667.161.995 1.357 2.15 3.282 3.88 4.514 6.126zM153.679 45.235c2.2.33 3.934.013 6.179-.119-1.366-.859-2.125-1.702-2.789-2.644-.36-.51-.935-.385-1.46-.236-.343.098-.61.313-.48.68zM50.892 137.167c1.545-1.677 2.664-8.24 1.763-9.555zm188.6-55.61c-1.436-1.976-3.37-3.068-4.783-4.679-.165-.188-.475-.317-.69-.023a.782.782 0 0 0 .012.907zm6.708 157.768c-1.057.742-1.478 1.63-2.225 2.217-1.978 1.557-3.96 3.12-5.703 4.953-.333.35-.797.79-.404 1.216.516.56.763-.157 1.077-.441 1.754-1.591 3.024-3.648 5.129-4.936z"/></g></g></svg>