<svg xmlns="http://www.w3.org/2000/svg" width="974" height="119" viewBox="0 0 974 119"><g><g><path fill="#fb8547" d="M16.766 41.532L0 42.687l11.111 12.67-4.09 16.38 15.427-6.705L36.688 74 35.11 57.188 48 46.35l-16.4-3.686L25.323 27z"/></g><g><path fill="#114837" d="M78.663 99.596L68 101.432l7.982 7.127-1.5 10.441 9.424-5.19 9.736 4.616-2.16-10.334 7.518-7.59-10.757-1.193L83.154 90z"/></g><g><path fill="#f7b8ae" d="M141.48 82l1.502-10.443L135 64.434l10.661-1.838L150.152 53l5.089 9.309L166 63.503l-7.52 7.589 2.16 10.334-9.734-4.618z"/></g><g><path fill="#80a08d" d="M235 58.011l14.094-7.98L250.454 34l12.01 10.822 15.8-3.672-6.671 14.666L280 69.58l-16.133-1.758L253.26 80l-3.3-15.752z"/></g><g><path fill="#c9cfda" d="M860 80.011l14.094-7.98L875.453 56l12.01 10.822 15.8-3.672-6.671 14.666L905 91.58l-16.133-1.758L878.26 102l-3.3-15.752z"/></g><g><path fill="#f7b8ae" d="M361.996 9.57L353 13.25l8.363 4.973.687 9.777 7.269-6.497 9.418 2.362-3.874-8.988L380 6.562V6.56l-9.662.942L364.094 0z"/></g><g><path fill="#f6d500" d="M665.73 19l-3.476 7.61L654 28.068l6.18 5.651L659.016 42l7.297-4.118 7.536 3.662-1.67-8.195 5.82-6.02-8.33-.948z"/></g><g><path fill="#80a08d" d="M709 87.791l10.962-6.245L721.019 69l9.341 8.47 12.29-2.874-5.19 11.478 6.54 10.77-12.548-1.376-8.25 9.532-2.566-12.328z"/></g><g><path fill="#f6d500" d="M956.662 73.887L948 77.303l8.054 4.617.661 9.08 6.998-6.035 9.073 2.195-3.73-8.345L974 71.092l-9.302.875L958.682 65z"/></g><g><path fill="#f7b8ae" d="M807.039 65l-.535-7.683L800 53.41l6.996-2.89 1.632-7.52 4.858 5.896 7.514-.74-3.995 6.534 3.012 7.061-7.326-1.855z"/></g></g></svg>